<svg width="100" height="100" viewBox="0 0 100 100" fill="none" xmlns="http://www.w3.org/2000/svg">
<path d="M40.4716 0.0452845C39.0656 0.188406 37.8264 0.808598 36.8137 1.8343C36.1107 2.54991 35.646 3.19395 35.3958 3.79029C35.2647 4.12424 35.1336 4.21965 34.7285 4.32699C33.7038 4.57746 30.4987 5.42426 29.474 5.7105C24.8748 6.98666 19.5249 9.98028 16.8678 12.7592L15.9623 13.7134L14.7827 13.6657C13.4601 13.606 13.1146 13.7372 12.5665 14.4886C11.6729 15.6813 11.8635 17.6253 12.9478 18.4244C13.2337 18.6272 13.3052 18.7703 13.3052 19.1162C13.3052 20.7621 14.6159 22.8016 16.6415 24.3282C17.833 25.2227 21.5981 27.3457 22.6228 27.6915C23.2662 27.9062 24.8748 28.9677 26.3522 30.1604C28.6399 31.9971 31.4638 33.8696 33.0128 34.5614L34.0374 35.0265L33.966 35.8137C33.8826 36.6724 34.0732 38.0917 34.3711 38.855C34.657 39.5825 35.1932 40.2862 35.6936 40.5724C36.8256 41.2046 37.4928 40.7156 38.0886 38.8073L38.4579 37.5908L38.9584 37.877C40.2809 38.6522 41.3176 39.1651 42.0801 39.4513C42.8308 39.7376 43.3669 39.8807 46.2266 40.5247C46.7389 40.644 47.1798 40.7871 47.2155 40.8348C47.2513 40.8945 47.1917 41.0972 47.0844 41.2881C46.7985 41.8486 46.8581 42.9101 47.2036 43.6615C47.3704 44.0193 47.5015 44.3175 47.5015 44.3413C47.5015 44.3532 47.2989 44.4009 47.0487 44.4367C46.0359 44.5679 45.1185 45.5578 45.1185 46.5001C45.1304 48.4441 47.8232 50.0065 50.8973 49.8515C52.053 49.8038 52.6369 49.601 53.6854 48.9212C54.7697 48.2056 54.9246 47.4661 54.2335 46.2377C54.0071 45.8322 53.8165 45.4624 53.8165 45.4266C53.8165 45.2477 54.9246 44.8303 55.9373 44.6275L57.0573 44.4009L58.0344 45.0808C58.5586 45.4505 59.4046 46.0588 59.8931 46.4285C61.7757 47.8478 62.4787 48.0863 64.6949 48.0744C65.4932 48.0744 66.5179 47.9909 66.9826 47.8955C67.8524 47.7285 70.0805 46.7505 71.5103 45.9395L72.3444 45.4505L72.5589 45.7248C72.678 45.8799 72.9997 46.3808 73.2618 46.8459C73.524 47.2991 74.1316 48.301 74.6082 49.0524C76.5147 52.0699 77.9325 54.491 78.4568 55.6121C78.6474 56.0415 79.2075 57.1864 79.6721 58.1764C81.3879 61.7425 81.5905 62.47 81.6143 65.0343C81.6262 66.8591 81.3641 68.4453 80.7326 70.2463C80.3394 71.3674 78.8023 74.4206 77.8849 75.8876C77.5751 76.3766 76.8125 77.784 76.181 79.0244C74.2389 82.829 73.381 86.0373 73.2738 89.9016C73.2261 91.4401 73.2618 92.1796 73.3929 92.919C73.7504 94.8154 75.2159 97.5824 76.5147 98.8228C77.7776 100.027 78.8738 100.326 79.5649 99.6338C79.7675 99.4311 79.9104 99.1567 79.9104 98.9778C79.9104 98.787 80.0058 98.62 80.1845 98.5365C80.8279 98.1907 80.7802 97.7136 79.8985 96.0439C78.9334 94.1952 78.5521 93.2768 78.3138 92.2273C77.73 89.6988 78.0398 86.2758 79.0645 83.6996C79.6126 82.34 80.387 81.2308 81.8169 79.7638C83.342 78.1895 84.2833 76.973 85.2722 75.2913C86.988 72.3811 87.548 70.9738 87.834 68.8031C88.1914 66.0838 87.9531 61.8617 87.2978 59.2975C86.3922 55.7433 84.5573 52.4754 81.0424 48.1459C80.3513 47.2991 79.3266 45.9633 78.7547 45.1762C78.1828 44.389 77.4559 43.4587 77.1461 43.1129C76.8244 42.767 76.5742 42.4569 76.5742 42.4211C76.5742 42.3972 76.7768 42.0871 77.0389 41.7413C79.41 38.533 79.9343 34.5733 78.9453 27.0475C78.6474 24.7337 78.4211 23.6126 77.9802 22.2171C76.8244 18.6033 74.6202 15.6813 70.3426 12.139C66.7086 9.13348 65.4217 8.50136 58.3442 6.28298C54.2573 4.99489 50.79 4.08846 48.9313 3.79029C48.2402 3.68295 47.561 3.57561 47.43 3.55175C47.287 3.51597 47.001 3.22973 46.7985 2.90771C46.0836 1.81045 44.6538 0.701257 43.3908 0.295747C42.5567 0.0214309 41.5559 -0.0620565 40.4716 0.0452845ZM43.1048 1.90586C43.4027 2.03705 43.9746 2.371 44.3797 2.64532C44.9516 3.0389 45.1661 3.27744 45.4163 3.79029C45.5831 4.14809 45.7142 4.47012 45.7142 4.5059C45.7142 4.54168 45.8334 4.82792 45.9644 5.13802C46.167 5.57931 46.2146 5.84169 46.167 6.53345C46.0359 8.52522 44.8563 9.7179 42.4971 10.2427C41.3771 10.4931 40.4954 10.3739 39.0179 9.74175C38.2435 9.41973 37.9694 9.24082 37.9218 9.03807C37.886 8.88302 37.6954 8.70412 37.4809 8.62063C37.1592 8.48944 37.0877 8.48944 36.8017 8.70412C36.623 8.83531 36.4324 9.13348 36.3728 9.38394C36.2775 9.74175 36.3013 9.87294 36.492 10.1473C36.766 10.5289 38.1005 11.2087 39.4588 11.662C42.4018 12.6519 46.1074 11.2684 47.2989 8.72797C47.6802 7.91695 47.9066 6.64079 47.8232 5.86555C47.7398 5.1738 47.6445 5.19765 49.3126 5.51967C52.1364 6.0683 59.1425 8.13163 62.7528 9.47936C65.6362 10.5528 66.9111 11.3519 70.2116 14.1904C72.5946 16.2418 73.9767 17.8042 75.1206 19.7722C76.2287 21.6685 76.7768 23.4456 77.2176 26.5704C78.0636 32.4622 78.004 35.6705 77.0032 38.3421C76.0976 40.7394 74.9538 42.0156 72.2371 43.6138C70.2354 44.8065 67.4592 46.19 67.1018 46.19C66.9707 46.19 66.8039 46.0945 66.7205 45.9753C66.649 45.8441 66.3988 45.6652 66.1724 45.5459C65.6362 45.2954 65.1477 45.4744 65.0524 45.9633C64.9928 46.2496 64.9213 46.3092 64.4566 46.3808C63.7536 46.4881 62.86 46.3689 62.3715 46.1184C62.157 46.0111 61.1442 45.3193 60.1314 44.5798C57.5935 42.7312 56.6999 42.266 53.2207 40.9422C51.7432 40.3697 51.7313 40.3697 51.7194 39.9761C51.6837 39.2605 51.0164 38.9862 50.4802 39.4513C50.1109 39.7734 49.5032 39.7734 48.5142 39.4633C47.99 39.2963 46.5244 38.9146 45.2614 38.6284C42.5091 37.9843 41.818 37.6742 38.3626 35.599C37.04 34.7999 35.1575 33.7623 34.1923 33.2971C33.2272 32.8439 31.8451 32.0806 31.1183 31.6154C29.8791 30.8044 29.2357 30.3393 27.1267 28.6934C25.3514 27.3099 23.9096 26.3796 23.159 26.1411C22.3964 25.8906 19.0364 23.9942 17.7734 23.1117C15.998 21.8593 14.9972 20.452 14.878 19.0446C14.8185 18.2694 15.0806 17.7565 16.1529 16.6116C16.6772 16.051 16.8798 15.7409 16.8798 15.5024C16.8798 14.9657 17.1538 14.5602 18.2262 13.5583C20.5139 11.3876 25.2799 8.7399 29.0331 7.55915C29.6527 7.36832 31.3208 6.90318 32.7268 6.53345C34.1328 6.16372 35.5149 5.75821 35.789 5.62701C36.3609 5.3527 36.9686 4.60131 37.1354 3.95726C37.2664 3.49212 38.2435 2.46642 38.8988 2.13247C40.0426 1.54806 42.0325 1.44072 43.1048 1.90586ZM15.0687 15.1565C15.3308 15.24 15.307 15.2758 14.604 16.0987C14.187 16.5758 13.8176 16.9694 13.758 16.9694C13.6031 16.9694 13.5078 16.3969 13.5793 15.9317C13.7104 15.1565 14.187 14.918 15.0687 15.1565ZM36.3013 36.243C36.8137 36.5531 37.0043 36.732 36.9686 36.8751C36.5277 38.4018 36.3728 38.8669 36.2894 38.9623C36.0868 39.1889 35.5626 37.7458 35.503 36.7559C35.4673 36.243 35.4673 35.8137 35.503 35.8137C35.5387 35.8137 35.8962 36.0045 36.3013 36.243ZM51.4692 42.0275C52.2675 42.3018 53.2684 42.6835 53.6973 42.8743L54.4718 43.2321L53.8641 43.4945C52.1841 44.2578 51.8028 45.3432 52.6845 46.8579C53.042 47.4661 53.0539 47.4303 52.2556 47.8597C51.4096 48.3129 50.8496 48.3726 49.6462 48.1698C48.3236 47.9313 47.4776 47.5973 47.0844 47.1202C46.3338 46.2257 47.0844 45.8202 48.693 46.2496C50.0275 46.6074 50.7185 46.3808 50.7185 45.5817C50.7185 45.2716 50.5636 45.0688 49.8249 44.3652C49.3364 43.9119 48.824 43.3633 48.693 43.1486C48.407 42.6835 48.3832 42.0514 48.6453 41.6697C48.824 41.4192 48.9074 41.3954 49.4317 41.455C49.7415 41.4908 50.659 41.7532 51.4692 42.0275ZM76.0738 44.1505C76.3478 44.4844 76.5742 44.7945 76.5742 44.8542C76.5742 44.9138 76.4074 45.0331 76.2168 45.1165C76.0142 45.2 75.5614 45.4386 75.204 45.6533L74.5606 46.0468L74.1316 45.3909C73.8933 45.0211 73.7384 44.6872 73.798 44.6275C73.9887 44.4486 75.3231 43.5899 75.4423 43.578C75.5138 43.5661 75.7878 43.8285 76.0738 44.1505ZM78.0755 46.9175C78.433 47.4065 78.4806 47.5496 78.3496 47.6331C78.0398 47.8359 76.8721 48.2414 76.4312 48.301C76.0261 48.3606 75.9785 48.3368 75.6687 47.8597C75.3351 47.3707 75.3351 47.3469 75.5614 47.1799C75.9189 46.9056 77.2057 46.3092 77.4321 46.3092C77.5393 46.3092 77.8253 46.5835 78.0755 46.9175ZM80.0296 49.446C80.2917 49.8038 80.5062 50.1139 80.5062 50.1496C80.5062 50.1854 79.9819 50.3405 79.3504 50.4955C78.7189 50.6506 78.0994 50.8653 77.9921 50.9726C77.7896 51.1753 77.7657 51.1396 77.3606 50.4717C77.0747 49.9946 76.9913 49.7441 77.0866 49.7203C77.5632 49.5772 79.0406 49.0285 79.1955 48.9331C79.4815 48.7542 79.5172 48.7781 80.0296 49.446ZM82.1028 52.2368L82.639 53.0359L81.3641 53.2864C80.6611 53.4295 79.9224 53.5846 79.7079 53.6203C79.3504 53.6919 79.3028 53.6561 78.9453 53.0359C78.7189 52.6304 78.6117 52.3322 78.6832 52.2607C78.7428 52.2011 79.3266 52.0341 79.9819 51.9029C80.6253 51.7598 81.2449 51.6047 81.3403 51.5451C81.4356 51.4854 81.5309 51.4377 81.5428 51.4377C81.5666 51.4377 81.8169 51.7955 82.1028 52.2368ZM82.7224 54.8607C82.9726 55.0158 83.1037 55.0396 83.3777 54.9323C83.7113 54.8011 83.7352 54.813 84.1403 55.5405C84.3667 55.958 84.5573 56.3516 84.5573 56.4231C84.5573 56.5066 84.3786 56.5662 84.176 56.5662C83.9616 56.5662 83.2824 56.6974 82.6747 56.8644C81.0185 57.3057 81.09 57.3296 80.5181 56.1369C80.2441 55.5644 80.0415 55.0873 80.0534 55.0754C80.113 55.0396 81.9837 54.6937 82.2101 54.6699C82.3292 54.6699 82.5556 54.7534 82.7224 54.8607ZM85.5582 59.2378C85.8918 60.3828 86.285 62.9113 86.4042 64.7361C86.4876 66.0123 86.3207 68.1948 86.0348 69.6857C85.8799 70.4371 84.8671 72.9059 84.7003 72.9059C84.6765 72.9059 84.1641 72.5243 83.5684 72.071C82.9726 71.6059 82.4126 71.2362 82.3173 71.2362C82.21 71.2362 82.1743 71.1646 82.2339 71.0215C82.2696 70.9142 82.4245 70.4252 82.5675 69.9481C82.6986 69.4829 82.8773 69.0894 82.9488 69.0894C83.0203 69.0894 83.3658 69.2802 83.7233 69.5068C84.3667 69.9242 84.6407 69.9481 85.0101 69.6618C85.2484 69.4591 85.1769 68.8985 84.8433 68.5049C84.6765 68.3022 84.2237 67.9921 83.8305 67.8132L83.1275 67.4912L83.199 66.5847C83.2347 66.0957 83.2824 65.6187 83.3062 65.5352C83.3777 65.3444 83.7948 65.3563 84.4501 65.5471C85.0935 65.7499 85.4629 65.6425 85.6297 65.2132C85.7727 64.8554 85.6058 64.4379 85.2365 64.1994C85.0935 64.1159 84.5931 64.0205 84.1165 63.9847L83.2586 63.9251L83.199 63.4957C83.0799 62.625 82.9607 61.7544 82.9488 61.6471C82.9488 61.4681 83.9854 61.2177 84.605 61.2415C85.0816 61.2654 85.2126 61.2177 85.4033 60.9911C85.725 60.5856 85.6892 60.0966 85.3199 59.7984C85.1412 59.6553 84.8909 59.5479 84.748 59.5479C84.5097 59.5479 83.0918 59.9057 82.6271 60.0846C82.4603 60.1562 82.353 60.025 82.1147 59.4883C81.9479 59.1067 81.8169 58.7608 81.8169 58.7131C81.8169 58.5699 83.7709 58.1167 84.3667 58.1167C84.6646 58.1167 84.9386 58.0571 84.9863 57.9855C85.1054 57.7947 85.2126 58.0213 85.5582 59.2378ZM83.6994 74.2179C83.8305 74.4325 83.8067 74.5518 83.473 75.1243C83.2705 75.4821 83.056 75.7683 82.9964 75.7445C82.9488 75.7206 82.5198 75.3748 82.0671 74.9573C81.6143 74.5518 81.1258 74.2179 80.9947 74.2179C80.7564 74.2179 80.7683 74.1702 81.1854 73.3353L81.6143 72.4646L82.5794 73.2041C83.1156 73.6215 83.616 74.0747 83.6994 74.2179ZM81.2092 76.1381L82.0909 77.0684L81.5786 77.6647C81.3045 77.9986 80.9351 78.3803 80.7564 78.4996L80.4347 78.7262L78.9572 77.295L79.5887 76.2335C79.9224 75.6491 80.2322 75.1839 80.2679 75.1959C80.3036 75.1959 80.7207 75.6252 81.2092 76.1381ZM78.8977 80.5987C78.6236 80.9923 78.2781 81.5409 78.1351 81.8152L77.8968 82.3042L77.444 82.0776C77.2057 81.9583 76.9317 81.851 76.8483 81.851C76.7649 81.851 76.6934 81.7914 76.6934 81.7198C76.6934 81.5886 77.9445 79.0721 78.147 78.7977C78.2185 78.7023 78.433 78.8574 78.8262 79.2629L79.41 79.8712L78.8977 80.5987ZM76.9198 83.4969C77.2415 83.7354 77.2415 83.6877 76.9674 84.7373L76.7649 85.5244L76.4193 85.2382C76.2287 85.0832 75.9785 84.952 75.8474 84.952C75.5734 84.952 75.5614 84.9877 75.8712 83.9859C76.1453 83.0795 76.2525 83.0317 76.9198 83.4969ZM76.5027 87.6355C76.4551 88.2915 76.3955 88.8639 76.3478 88.8997C76.3121 88.9355 75.9666 88.9355 75.5734 88.9116L74.8823 88.8639L74.9538 88.3749C75.0014 88.1006 75.0848 87.552 75.1563 87.1465L75.2755 86.419L76.5742 86.4428L76.5027 87.6355ZM76.4908 91.1777C76.6219 92.6567 77.0032 93.8493 77.9683 95.8411L78.8857 97.7136L78.6355 97.976L78.3734 98.2265L77.9445 97.9044C77.3368 97.4393 76.6934 96.5925 76.1214 95.4833L75.621 94.5172L75.9785 94.4576C76.6338 94.3145 76.753 93.5034 76.1572 93.1099C75.8951 92.9429 75.8355 92.9429 75.5138 93.0979C75.1921 93.2649 75.1444 93.2649 75.0968 93.086C75.0014 92.7759 74.787 91.2612 74.787 90.8319C74.787 90.4621 74.7989 90.4502 75.3589 90.4025C75.6687 90.3786 76.0261 90.3548 76.1691 90.3429C76.3955 90.319 76.4312 90.4025 76.4908 91.1777Z" fill="#F05600"/>
<path d="M28.0204 9.38398C27.4127 9.65829 26.6263 10.4216 26.388 10.9583C26.2927 11.173 26.1616 11.2446 25.8876 11.2446C25.0892 11.2446 24.2671 12.0914 24.2671 12.9143C24.2671 13.7372 24.9343 14.2262 26.0424 14.2262C26.6263 14.2262 26.6501 14.2501 26.8765 14.6914C27.3293 15.574 28.2825 16.1107 29.1285 15.9556C30.1651 15.7648 31.3804 14.6318 31.6664 13.5941C31.9166 12.7115 31.8332 11.34 31.4995 10.6124C30.88 9.26471 29.4025 8.73993 28.0204 9.38398ZM30.2723 10.6005C30.594 10.7198 30.4868 11.1014 29.9268 11.817C29.6289 12.1868 29.3906 12.5326 29.3906 12.5684C29.3906 12.6161 29.6289 12.9739 29.9268 13.3794C30.2246 13.785 30.4391 14.1666 30.4034 14.2262C30.2366 14.4886 29.9029 14.3097 29.5097 13.7492C29.2833 13.4272 29.057 13.1648 29.0212 13.1528C28.9855 13.1528 28.8067 13.4152 28.628 13.7492C28.4135 14.1428 28.2229 14.3455 28.068 14.3455C27.7344 14.3455 27.782 13.9639 28.211 13.1528L28.5684 12.473L28.068 11.7336C27.6986 11.2088 27.5914 10.9702 27.6867 10.8748C27.8774 10.684 28.2467 10.9225 28.5565 11.4235C28.6995 11.6501 28.8544 11.8409 28.9021 11.8409C28.9497 11.8409 29.0689 11.6858 29.1761 11.5069C29.3548 11.2088 29.9625 10.5289 30.0578 10.5289C30.0697 10.5289 30.1651 10.5647 30.2723 10.6005Z" fill="#F05600"/>
<path d="M37.2426 21.0483C35.8009 22.8612 35.4911 25.1631 36.4086 27.3576C36.8613 28.4429 37.3618 29.0512 38.1124 29.4209C38.875 29.8026 39.3635 29.8145 39.8878 29.4567C40.7456 28.8842 41.1746 27.6916 41.1865 25.8787C41.1865 25.008 41.4129 24.4713 42.0801 23.7557C42.6759 23.1117 42.7593 22.7181 42.378 22.3364C41.9491 21.9071 41.5439 22.0263 40.8052 22.7777C39.852 23.7557 39.6375 24.3044 39.5184 26.1292C39.435 27.3576 39.3754 27.6558 39.1848 27.8466C38.9584 28.0851 38.9465 28.0732 38.5414 27.7154C37.7311 27.0117 37.2664 25.3539 37.4928 24.042C37.6477 23.1594 37.8264 22.7539 38.4103 21.9906C38.8392 21.4181 38.8988 21.0961 38.6128 20.6905C38.2911 20.2135 37.8264 20.3447 37.2426 21.0483Z" fill="#F05600"/>
<path d="M59.357 27.6558C58.5706 27.9062 57.2361 29.242 56.6999 30.3274C56.3782 30.9714 56.3186 31.2099 56.3186 31.9733C56.3186 32.4742 56.4021 33.1898 56.5093 33.5714C56.6165 33.9531 56.688 34.299 56.6523 34.3228C56.6284 34.3467 56.3901 34.3228 56.128 34.2513C55.8778 34.1797 55.3774 34.1439 55.0318 34.1797C53.6497 34.3228 52.768 35.265 52.9229 36.4577C53.1016 37.9247 53.9833 38.7477 56.8548 40.1789C58.8804 41.1807 58.9519 41.2046 59.631 41.1569C60.203 41.1211 60.4532 41.0257 60.9179 40.6917C61.6447 40.1669 62.2285 39.4156 62.4072 38.7596C62.4787 38.4853 62.5741 37.6981 62.6217 37.0064C62.6694 36.3146 62.7766 35.6348 62.86 35.4797C63.0626 35.0981 63.5153 35.1458 64.1826 35.6348C64.8737 36.1357 65.2669 36.1715 65.6005 35.7421C65.9579 35.2889 65.9103 35.0027 65.386 34.5017C64.2422 33.4045 62.8362 33.2613 61.8711 34.132C61.323 34.6329 61.0847 35.3128 61.0132 36.6128C60.9179 38.2587 60.8106 38.5688 60.191 39.1412C59.7621 39.5348 59.5834 39.6302 59.3808 39.5587C58.6659 39.344 55.5323 37.6504 55.1271 37.2568C54.2931 36.4696 54.3884 35.8137 55.3297 35.8137C55.842 35.8137 56.3067 36.0164 57.2599 36.6366C58.1059 37.1853 58.5706 37.2568 58.94 36.8871C59.2855 36.5412 59.2378 36.0284 58.7731 34.9907C58.1893 33.7026 57.8199 32.3072 57.9153 31.7109C58.0225 31.0072 58.9638 29.6833 59.6191 29.2897C60.0719 29.0273 60.2268 28.9916 60.7868 29.0631C61.7519 29.1705 62.7528 29.5879 63.1579 30.053C63.5511 30.4943 64.0277 30.5778 64.3256 30.2319C64.8856 29.6118 64.6234 28.9796 63.5987 28.431C62.0021 27.5842 60.4651 27.298 59.357 27.6558Z" fill="#F05600"/>
</svg>
