<svg width="538" height="120" viewBox="0 0 538 120" fill="none" xmlns="http://www.w3.org/2000/svg">
<g clip-path="url(#clip0_1311_191)">
<path d="M59.3926 0.728646C55.6753 2.11434 53.3098 5.9355 53.7744 9.88263C54.0701 12.1081 54.7037 13.2839 58.0831 17.357C62.2651 22.3959 63.7858 26.385 64.0815 33.3135C64.3349 38.4783 63.6168 45.2808 62.772 45.7847C62.5185 45.9527 57.365 46.1206 51.3244 46.1626C40.7216 46.2466 40.1303 46.2886 34.4276 47.5483C29.5275 48.6401 22.811 49.3119 22.811 48.7241C22.811 48.6401 23.2757 47.1704 23.8671 45.4908C27.0352 36.2528 27.2465 26.5949 24.4585 17.9868C22.6421 12.3181 17.4041 4.21388 14.4471 2.53425C10.7298 0.350729 6.75909 0.854619 3.75991 3.87795C0.211579 7.36318 0.169337 11.1423 3.59094 16.9371C5.91425 20.8422 6.6746 22.9417 7.01254 26.301C7.35047 29.7862 6.71684 33.0195 4.01336 41.2917C1.39435 49.3119 0.549515 53.427 0.169337 59.6836C-0.295325 66.948 0.591757 70.8532 4.68923 79.5033C8.74446 88.0694 9.63154 93.8641 7.56168 98.1891C4.30905 105.034 8.95567 112.466 16.517 112.424C22.2197 112.424 25.9369 108.687 27.9223 101.003C30.0767 92.6464 28.218 81.4348 23.0223 71.1471C21.9662 69.0476 21.1214 67.284 21.1214 67.2C21.1214 67.116 22.0084 67.2 23.149 67.3679C26.4861 67.9138 30.3724 67.7879 35.9483 66.9061C40.3837 66.2342 42.8337 66.1502 50.9442 66.2762L60.6176 66.4442L60.8711 68.5017C61.209 70.9791 61.7581 72.7008 63.6168 77.2778C65.4754 81.6868 66.785 87.3135 66.8694 90.7988C66.9117 93.0663 66.6582 94.1161 65.6022 96.5515C62.5185 103.354 62.9832 107.553 67.1651 111.08C71.8962 115.153 78.5282 114.02 81.9921 108.561C83.7662 105.789 86.4275 98.651 86.9344 95.3758C87.9059 89.0352 86.1318 79.1673 82.2878 69.6354C80.5981 65.4784 80.5981 65.4784 80.8938 61.4472C81.0205 59.2637 81.4429 56.2404 81.7809 54.7287C83.9774 44.8189 84.1886 43.4752 84.1886 38.1424C84.1886 24.3274 80.3869 14.5016 71.4738 5.09568C69.9531 3.50004 67.9255 1.77841 67.0384 1.31652C64.8418 0.224757 61.5047 -0.027187 59.3926 0.728646Z" fill="#322C25"/>
<path d="M109.872 2.9122C103.873 4.54983 98.4665 9.42076 96.4811 15.0055C96.1432 15.9293 95.6362 18.2388 95.425 20.0444C94.8759 24.4954 97.4673 28.2326 99.6639 33.5234C101.1 37.0507 101.396 38.1844 101.396 40.6619C101.396 43.2653 101.142 42.2311 99.1992 47.018C95.8198 55.2482 93.1862 58.1456 93.144 65.116V70.9947L95.3828 76.4535C98.1708 83.214 96.8466 87.3214 96.8466 93.326C96.8466 103.236 98.0294 107.981 101.367 111.718C105.464 116.211 108.041 117.135 117.968 117.555C122.023 117.723 129.303 119.143 131.626 119.436C135.344 119.898 136.358 118.898 139.23 118.311C143.665 117.429 148.988 115.329 150.931 113.734C156.085 109.534 156.042 101.22 150.889 97.6511C148.101 95.6775 144.764 95.6355 139.399 97.4411L135.217 98.8268L130.824 99.113C128.374 98.7351 122.783 97.3991 120.756 97.3991H117.123V93.284C117.123 87.8672 118.405 81.4504 117.18 77.1254C116.588 75.1938 116.208 73.5562 116.25 73.5142C116.335 73.4302 117.982 73.5562 119.968 73.8081C121.953 74.0601 127.825 74.27 133.063 74.312L142.567 74.354L144.764 73.2203C145.946 72.5904 147.425 71.4146 148.016 70.6588C151.776 65.7459 151.734 60.623 147.847 56.8439C145.059 54.1984 142.609 53.6106 137.963 54.5764C135.513 55.0803 132.514 55.2482 126.346 55.2062C121.784 55.1642 117.56 55.0383 116.968 54.8703L115.87 54.6184L117.475 50.3353C121.461 45.2124 122.052 42.7614 121.545 37.3026C121.165 33.7334 118.616 31.7598 115.912 24.8734C114.73 21.85 114.899 21.724 120.897 21.3881C135.808 20.5903 139.103 20.2544 141.342 19.2046C148.059 16.0553 147.636 6.48141 140.666 3.3321C138.892 2.57627 137.794 2.49229 125.459 2.36632C114.73 2.28233 111.73 2.40831 109.872 2.9122Z" fill="#322C25"/>
<path d="M164.111 3.45806C158.661 5.97751 157.521 11.3103 160.309 21.1782C164.786 36.8407 165.716 47.4644 163.646 57.8781C162.379 64.1767 162.125 71.2311 163.012 74.8843C163.35 76.144 164.66 79.5453 165.927 82.4426C169.011 89.3291 169.222 89.4287 167.279 95.3913C164.448 104.041 165.167 109.878 169.602 114.287C171.376 116.051 172.348 116.639 174.671 117.353C178.05 118.402 179.782 118.444 192.244 117.604C197.439 117.269 204.832 116.807 208.676 116.597C215.772 116.177 219.152 115.463 225.319 113.195C229.459 111.642 231.782 108.954 232.543 104.713C232.965 102.446 231.782 98.7926 229.881 96.7351C226.671 93.2078 223.249 92.662 217.209 94.7195C214.928 95.5173 212.013 96.1472 209.521 96.3991C203.48 96.987 188.357 97.7848 188.104 97.5329C187.977 97.4069 188.104 96.3151 188.357 95.1394C188.991 92.1581 188.949 88.9932 188.188 85.214C187.639 82.2747 187.006 80.4691 183.542 72.4069C182.528 69.9714 182.401 69.3835 182.697 66.7381C182.866 65.1005 183.373 61.9512 183.88 59.7676C184.64 56.4504 184.767 54.5188 184.767 48.2202C184.682 38.1004 183.922 34.0693 179.318 19.6665C177.839 15.0475 176.403 10.3865 176.149 9.33677C174.798 4.04593 168.968 1.23255 164.111 3.45806Z" fill="#322C25"/>
<path d="M239.386 4.08796C233.894 5.55764 231.571 11.7303 234.486 17.1891C236.302 20.6323 237.738 25.0833 238.034 28.2746C238.287 30.7101 238.161 31.4239 236.767 35.2031C234.612 41.1238 233.979 44.525 233.894 50.5297C233.852 58.34 235.288 62.875 240.568 71.3571C246.482 80.847 243.243 82.9124 242.018 93.0321C241.342 98.9948 241.342 99.5827 241.975 102.186C243.792 109.451 249.199 112.936 261.28 114.699C266.729 115.497 294.82 115.329 296.806 114.489C298.918 113.65 301.283 111.424 302.381 109.409C303.733 106.805 303.649 102.816 302.17 100.297C300.903 98.155 298.664 96.4334 296.13 95.7195C293.849 95.0897 282.232 94.7117 277.754 95.1736C274.924 95.4256 266.011 95.0477 262.505 94.5018C262.378 94.4598 262.421 93.0741 262.632 91.3945C263.054 87.3634 266.378 80.2592 265.238 76.27C263.971 71.693 262.788 69.2576 258.648 62.3711C256.663 59.0538 254.762 55.4846 254.424 54.3929C253.579 51.6215 254.001 47.2544 255.733 41.0818C257.634 34.3213 257.888 31.8858 257.085 26.8049C255.987 19.5406 252.058 10.0926 248.763 6.81736C246.018 4.08796 242.85 3.16416 239.386 4.08796Z" fill="#322C25"/>
<path d="M338.104 8.03513C333.627 10.1767 331.641 15.3415 333.627 19.6666C334.049 20.5904 336.119 23.2358 338.189 25.5453C344.483 32.5157 349.087 38.1425 352.762 43.4753C358.423 51.6635 359.986 53.6371 361.633 54.6868C362.985 55.5267 363.365 56.1985 364.632 59.9357C367.885 69.2996 367.927 70.2654 365.013 76.3961C362.394 81.9388 360.591 86.8362 360.253 91.8331C359.957 96.4941 360.422 98.6776 362.999 104.556C366.589 112.744 369.039 115.18 374.024 115.432C376.432 115.558 377.192 115.432 379.009 114.55C381.543 113.248 383.022 111.653 383.993 109.007C385.091 106.194 384.669 103.465 382.346 98.4256C381.121 95.7382 380.403 93.6387 380.403 92.6309C380.403 91.5392 382.163 87.3556 383.684 84.1643C386.514 78.1177 387.316 74.9264 387.316 69.8035C387.316 65.0586 386.683 62.0352 384.444 55.3587C383.092 51.3696 382.839 50.1938 383.177 49.522C384.655 46.7926 399.736 27.9387 404.424 23.0258C406.832 20.4644 407.677 18.6168 407.677 16.0134C407.677 11.4784 404.255 7.7412 399.778 7.36328C395.596 7.02735 394.286 7.82518 386.852 15.2155C383.219 18.8267 378.319 24.0336 375.911 26.805C373.503 29.5764 371.222 32.1798 370.842 32.5997C370.208 33.2716 369.997 33.1036 367.167 29.6604C362.943 24.4115 349.299 10.5546 346.764 8.95893C344.018 7.23731 340.597 6.85939 338.104 8.03513Z" fill="#322C25"/>
<path d="M428.713 10.6805C420.307 10.9745 417.984 11.5203 415.323 13.7458C413.253 15.5514 412.324 17.357 412.112 20.0864C412.028 21.2622 411.225 23.9496 410.38 26.0491C407.677 32.7676 407.001 36.1269 407.297 41.7117C407.592 47.0865 408.226 50.3198 410.211 56.8283C412.07 62.875 412.028 65.8144 410.043 72.7848C407.888 80.2592 407.423 83.6184 407.719 89.6651C408.142 99.113 410.465 104.194 417.519 111.29C423.264 117.085 423.771 117.253 430.614 116.413C433.867 116.035 440.541 115.825 452.622 115.825H469.984L472.054 114.566C473.321 113.768 474.588 112.508 475.391 111.248C476.489 109.443 476.658 108.771 476.658 106.167C476.658 103.564 476.489 102.892 475.391 101.087C473.828 98.6091 471.209 96.8875 467.998 96.2996C465.633 95.8377 451.566 95.6278 449.496 96.0477C448.863 96.1737 444.977 96.5936 440.879 96.9295C435.008 97.4754 433.191 97.5174 432.431 97.0975C427.615 94.62 426.475 88.1114 429.263 78.5376L429.727 76.8999L437.964 77.2778C449.665 77.7397 461.789 77.5298 464.408 76.7739C470.491 75.0103 473.321 68.2498 470.28 62.6651C467.872 58.256 463.859 56.8703 455.833 57.6262C453.129 57.9201 446.455 58.214 441.09 58.382L431.248 58.6339V57.5422C431.248 56.9123 430.319 53.5111 429.178 49.9838C425.841 39.7381 425.714 38.0165 427.953 31.6759L428.925 29.0305L434.416 29.3244C437.415 29.4504 441.639 29.7863 443.709 29.9963C445.821 30.2062 451.228 30.5001 455.748 30.6681C465.084 30.962 467.407 30.5841 470.195 28.2746C476.447 23.1518 473.743 12.6121 465.802 11.1004C463.014 10.5965 438.725 10.3026 428.713 10.6805Z" fill="#322C25"/>
<path d="M497.808 9.99775C496.118 10.4177 493.414 11.5094 491.809 12.3492C474.786 21.2093 472.687 52.2933 488.866 63.0429C492.541 65.4784 495.118 66.5282 501.665 68.1658C506.946 69.5095 509.016 70.4333 512.226 72.8688C515.014 74.9683 516.774 76.8159 517.07 82.0647C517.197 85.0881 516.07 88.6837 515.521 90.5733C514.254 94.9403 513.155 95.9061 508.382 96.578C504.242 97.1658 502.933 96.662 499.68 93.2187C496.596 89.9854 494.822 89.0616 491.654 89.0616C487.979 89.0616 484.853 90.9932 483.079 94.2685C481.685 96.9139 481.769 101.533 483.332 104.682C485.529 109.175 491.654 113.71 498.244 115.768C504.031 117.615 513.113 116.985 519.618 114.298C523.336 112.744 527.898 109.427 529.925 106.782C537.487 96.9139 540.543 77.354 534.206 66.3524C531.207 61.1876 522.364 54.5608 515.394 51.5375C513.535 50.7396 509.734 49.5219 506.988 48.8081C500.905 47.2544 500.722 44.6245 499.497 42.2311C498.695 40.6774 498.526 37.8376 498.652 35.5281C498.821 32.1689 499.666 30.7832 502.37 29.3975C506.552 27.2979 510.227 28.6416 511.452 32.7567C512.339 35.7801 513.606 37.5857 515.591 38.7194C519.098 40.693 522.392 40.567 525.307 38.3835C527.799 36.5359 528.982 34.0165 528.982 30.5312C528.982 22.259 522.054 13.315 513.353 10.3757C509.382 9.03197 502.032 8.864 497.808 9.99775Z" fill="#322C25"/>
</g>
<defs>
<clipPath id="clip0_1311_191">
<rect width="538" height="120" fill="white"/>
</clipPath>
</defs>
</svg>
