<svg width="1302" height="200" viewBox="0 0 1302 200" fill="none" xmlns="http://www.w3.org/2000/svg">
<g clip-path="url(#clip0_1133_173)">
<path d="M96.4991 1.18483C90.4593 3.43799 86.6158 9.65125 87.3708 16.0693C87.8512 19.6881 88.8807 21.5998 94.3715 28.2228C101.166 36.4161 103.637 42.9024 104.117 54.1683C104.529 62.5664 103.363 73.6274 101.99 74.4467C101.578 74.7198 93.2047 74.9929 83.39 75.0612C66.1629 75.1978 65.202 75.266 55.9364 77.3144C47.9749 79.0896 37.0621 80.182 37.0621 79.2261C37.0621 79.0896 37.8171 76.6999 38.7779 73.9688C43.9255 58.9477 44.2687 43.2438 39.7388 29.2469C36.7876 20.0295 28.2769 6.85187 23.4726 4.12077C17.4328 0.570329 10.9812 1.38966 6.10818 6.30565C0.342928 11.9727 0.274294 18.1177 5.83364 27.54C9.60851 33.8898 10.8439 37.3037 11.393 42.7659C11.9421 48.4329 10.9126 53.6903 6.51998 67.141C2.26468 80.182 0.891999 86.8732 0.274294 97.0466C-0.48068 108.859 0.960633 115.208 7.61813 129.274C14.207 143.202 15.6483 152.625 12.2852 159.657C7.00042 170.786 14.5502 182.872 26.8356 182.803C36.1012 182.803 42.141 176.727 45.3668 164.232C48.8671 150.645 45.8472 132.414 37.4053 115.686C35.6894 112.273 34.3167 109.405 34.3167 109.268C34.3167 109.132 35.7581 109.268 37.6112 109.541C43.0333 110.429 49.3476 110.224 58.4073 108.79C65.6138 107.698 69.5946 107.561 82.7723 107.766L98.4895 108.039L98.9013 111.385C99.4504 115.413 100.343 118.213 103.363 125.655C106.382 132.824 108.51 141.973 108.647 147.64C108.716 151.327 108.304 153.034 106.588 156.994C101.578 168.055 102.333 174.883 109.128 180.618C116.815 187.241 127.59 185.398 133.218 176.522C136.101 172.015 140.425 160.408 141.248 155.083C142.827 144.773 139.944 128.727 133.699 113.228C130.953 106.469 130.953 106.469 131.434 99.9143C131.64 96.3638 132.326 91.4478 132.875 88.9898C136.444 72.8763 136.787 70.6914 136.787 62.0202C136.787 39.5568 130.61 23.5799 116.128 8.2857C113.658 5.69115 110.363 2.89177 108.922 2.14071C105.353 0.365496 99.9308 -0.0441697 96.4991 1.18483Z" fill="#F05600"/>
<path d="M178.517 4.73531C168.771 7.39814 159.986 15.3183 156.76 24.3993C156.211 25.9014 155.387 29.6566 155.044 32.5926C154.152 39.83 158.362 45.9067 161.931 54.5097C164.265 60.245 164.745 62.0885 164.745 66.1169C164.745 70.3501 164.333 68.6685 161.176 76.4521C155.685 89.8345 151.406 94.5457 151.338 105.88V115.439L154.975 124.315C159.505 135.307 157.354 141.986 157.354 151.75C157.354 167.863 159.275 175.579 164.698 181.655C171.355 188.961 175.542 190.463 191.671 191.146C198.26 191.419 210.088 193.728 213.863 194.206C219.903 194.957 221.55 193.331 226.217 192.375C233.424 190.941 242.072 187.527 245.229 184.933C253.602 178.105 253.534 164.586 245.16 158.782C240.63 155.573 235.208 155.505 226.492 158.441L219.697 160.694L212.559 161.159C208.578 160.545 199.495 158.373 196.201 158.373H190.298V151.681C190.298 142.874 192.381 132.44 190.39 125.407C189.43 122.266 188.812 119.604 188.88 119.535C189.018 119.399 191.694 119.604 194.92 120.013C198.146 120.423 207.686 120.764 216.197 120.833L231.639 120.901L235.208 119.057C237.13 118.033 239.532 116.121 240.493 114.892C246.602 106.904 246.533 98.5741 240.219 92.4291C235.689 88.1276 231.708 87.1717 224.158 88.7421C220.178 89.5614 215.305 89.8345 205.284 89.7663C197.872 89.698 191.008 89.4931 190.047 89.22L188.263 88.8104L190.871 81.846C197.346 73.5162 198.307 69.5308 197.483 60.6547C196.866 54.8511 192.724 51.642 188.331 40.4445C186.41 35.5285 186.684 35.3237 196.43 34.7775C220.658 33.4802 226.011 32.934 229.649 31.227C240.562 26.1062 239.876 10.5389 228.551 5.41809C225.668 4.18909 223.884 4.05254 203.843 3.8477C186.41 3.71115 181.537 3.91598 178.517 4.73531Z" fill="#F05600"/>
<path d="M266.643 5.6229C257.789 9.71956 255.936 18.3908 260.466 34.4361C267.741 59.9036 269.251 77.1779 265.888 94.1107C263.829 104.352 263.417 115.823 264.858 121.763C265.407 123.811 267.535 129.342 269.594 134.053C274.604 145.251 274.947 145.413 271.79 155.108C267.192 169.173 268.359 178.664 275.565 185.833C278.448 188.701 280.026 189.656 283.801 190.817C289.292 192.524 292.106 192.592 312.353 191.227C320.795 190.681 332.806 189.93 339.052 189.588C350.582 188.905 356.073 187.745 366.093 184.058C372.819 181.531 376.594 177.162 377.83 170.266C378.516 166.579 376.594 160.638 373.506 157.293C368.29 151.557 362.73 150.67 352.916 154.015C349.209 155.313 344.474 156.337 340.424 156.747C330.61 157.702 306.039 159 305.627 158.59C305.421 158.385 305.627 156.61 306.039 154.698C307.068 149.851 307 144.704 305.764 138.559C304.872 133.78 303.842 130.844 298.214 117.735C296.567 113.775 296.361 112.819 296.842 108.517C297.116 105.854 297.94 100.734 298.763 97.1832C299.999 91.7893 300.205 88.6485 300.205 78.4069C300.068 61.952 298.832 55.3973 291.351 31.9781C288.949 24.4675 286.615 16.8887 286.203 15.1818C284.007 6.57879 274.536 2.00419 266.643 5.6229Z" fill="#F05600"/>
<path d="M388.948 6.64713C380.026 9.03684 376.251 19.0737 380.987 27.9497C383.938 33.5485 386.272 40.7859 386.752 45.975C387.164 49.9351 386.958 51.0959 384.693 57.2408C381.193 66.868 380.163 72.3985 380.026 82.1622C379.957 94.8618 382.291 102.236 390.87 116.028C400.479 131.459 395.215 134.817 393.225 151.272C392.127 160.967 392.127 161.923 393.156 166.156C396.107 177.968 404.893 183.635 424.522 186.503C433.376 187.8 479.017 187.527 482.243 186.162C485.675 184.796 489.518 181.177 491.303 177.9C493.499 173.667 493.362 167.18 490.96 163.084C488.901 159.602 485.263 156.802 481.145 155.642C477.439 154.617 458.564 154.003 451.289 154.754C446.691 155.164 432.209 154.549 426.512 153.661C426.306 153.593 426.375 151.34 426.718 148.609C427.405 142.054 432.806 130.503 430.952 124.016C428.893 116.574 426.972 112.614 420.246 101.416C417.02 96.0225 413.931 90.2189 413.382 88.4437C412.009 83.9374 412.696 76.8365 415.51 66.7997C418.598 55.807 419.01 51.8469 417.706 43.5853C415.922 31.7733 409.539 16.4108 404.185 11.0852C399.724 6.64713 394.576 5.14502 388.948 6.64713Z" fill="#F05600"/>
<path d="M549.345 13.0653C542.07 16.5474 538.844 24.9456 542.07 31.9782C542.756 33.4803 546.119 37.7818 549.482 41.5371C559.708 52.8711 567.19 62.0204 573.161 70.6916C582.358 84.0058 584.897 87.2148 587.574 88.9217C589.77 90.2873 590.388 91.3797 592.447 97.4564C597.732 112.682 597.8 114.253 593.065 124.221C588.809 133.234 585.88 141.197 585.331 149.322C584.851 156.901 585.606 160.451 589.793 170.01C595.627 183.324 599.607 187.285 607.706 187.694C611.618 187.899 612.854 187.694 615.805 186.26C619.923 184.144 622.325 181.549 623.904 177.248C625.688 172.673 625.002 168.235 621.227 160.042C619.237 155.672 618.07 152.258 618.07 150.619C618.07 148.844 620.93 142.042 623.401 136.853C627.999 127.021 629.303 121.832 629.303 113.502C629.303 105.786 628.274 100.87 624.636 90.0142C622.44 83.5278 622.028 81.616 622.577 80.5236C624.979 76.0855 649.482 45.4289 657.1 37.4404C661.012 33.2755 662.385 30.2712 662.385 26.038C662.385 18.6641 656.826 12.5873 649.55 11.9728C642.756 11.4266 640.628 12.7239 628.548 24.7408C622.646 30.6126 614.684 39.0791 610.772 43.5854C606.86 48.0917 603.154 52.3249 602.536 53.0077C601.507 54.1001 601.163 53.827 596.565 48.2283C589.702 39.6936 567.533 17.1619 563.415 14.5674C558.953 11.768 553.394 11.1535 549.345 13.0653Z" fill="#F05600"/>
<path d="M696.565 17.3667C682.906 17.8447 679.131 18.7323 674.808 22.351C671.444 25.2869 669.935 28.2229 669.591 32.6609C669.454 34.5727 668.15 38.9425 666.777 42.3563C662.385 53.2808 661.287 58.743 661.767 67.8239C662.247 76.5634 663.277 81.8208 666.503 92.4038C669.523 102.236 669.454 107.015 666.228 118.349C662.728 130.503 661.973 135.965 662.453 145.797C663.14 161.159 666.915 169.421 678.376 180.96C687.711 190.382 688.534 190.655 699.653 189.29C704.938 188.675 715.782 188.334 735.411 188.334H763.62L766.983 186.286C769.042 184.988 771.101 182.94 772.405 180.892C774.19 177.956 774.464 176.863 774.464 172.63C774.464 168.397 774.19 167.304 772.405 164.368C769.866 160.34 765.61 157.541 760.394 156.585C756.551 155.834 733.695 155.492 730.332 156.175C729.303 156.38 722.989 157.063 716.331 157.609C706.791 158.497 703.84 158.565 702.604 157.882C694.78 153.854 692.927 143.271 697.457 127.703L698.212 125.041L711.595 125.655C730.607 126.406 750.305 126.065 754.56 124.836C764.443 121.968 769.042 110.975 764.1 101.894C760.188 94.7253 753.668 92.4721 740.628 93.7011C736.235 94.1791 725.391 94.657 716.674 94.9301L700.683 95.3398V93.5646C700.683 92.5404 699.173 87.0099 697.319 81.2746C691.897 64.6148 691.692 61.8155 695.329 51.5056L696.908 47.2041L705.83 47.682C710.703 47.8868 717.566 48.4331 720.93 48.7744C724.361 49.1158 733.146 49.5938 740.49 49.8669C755.658 50.3448 759.433 49.7303 763.963 45.9751C774.121 37.6452 769.728 20.5075 756.825 18.0495C752.295 17.2302 712.831 16.7522 696.565 17.3667Z" fill="#F05600"/>
<path d="M808.827 16.2565C806.082 16.9393 801.689 18.7145 799.081 20.0801C771.422 34.4867 768.013 85.0298 794.299 102.509C800.271 106.469 804.457 108.176 815.095 110.839C823.675 113.024 827.038 114.526 832.254 118.486C836.784 121.9 839.644 124.904 840.124 133.439C840.33 138.355 838.5 144.201 837.607 147.274C835.548 154.375 833.764 155.945 826.008 157.037C819.282 157.993 817.154 157.174 811.87 151.575C806.859 146.318 803.977 144.816 798.829 144.816C792.858 144.816 787.779 147.956 784.896 153.282C782.632 157.584 782.769 165.094 785.308 170.215C788.877 177.521 798.829 184.895 809.536 188.24C818.939 191.244 833.695 190.22 844.265 185.851C850.305 183.324 857.717 177.93 861.012 173.629C873.297 157.584 878.262 125.779 867.967 107.89C863.094 99.492 848.726 88.7168 837.401 83.8008C834.382 82.5035 828.205 80.5235 823.743 79.3627C813.86 76.8365 813.563 72.5603 811.573 68.6684C810.269 66.1422 809.994 61.5246 810.2 57.7693C810.474 52.3071 811.847 50.054 816.24 47.8008C823.034 44.3869 829.006 46.5718 830.996 53.263C832.437 58.179 834.496 61.1149 837.722 62.9584C843.419 66.1675 848.772 65.9626 853.508 62.4122C857.557 59.408 859.479 55.3113 859.479 49.6443C859.479 36.1936 848.223 21.6505 834.085 16.871C827.633 14.6862 815.691 14.413 808.827 16.2565Z" fill="#F05600"/>
<path d="M1016.01 19.1672C1001.6 21.2155 987.595 27.2239 979.222 34.871C961.446 51.2576 955.131 73.1748 961.857 95.1602C964.397 103.422 964.397 103.9 963.436 118.17C962.269 134.829 963.642 144.798 968.446 155.176C974.555 168.285 984.369 178.186 997.204 184.058C1005.03 187.676 1010.79 188.974 1018.89 188.974C1030.42 188.974 1042.85 183.853 1051.22 175.591C1056.43 170.402 1058.29 166.647 1058.56 160.502C1058.77 156.2 1058.56 155.381 1056.64 152.172C1053.76 147.256 1049.02 144.457 1043.39 144.457C1038.11 144.457 1035.57 145.617 1030.29 150.533C1024.86 155.586 1020.13 157.293 1015.32 156.064C1004.89 153.264 997.753 144.935 996.106 133.532C995.419 129.231 995.488 125.885 996.38 116.668C997.616 103.353 997.273 98.9154 994.184 88.7421C990.89 77.6128 997.938 71.9458 1003.15 64.1621C1008.85 55.6274 1016.56 48.8679 1028.78 48.8679C1032.28 48.8679 1033.79 49.2776 1037.01 50.9845C1040.44 52.828 1041.47 53.1011 1045.04 52.828C1055.61 52.077 1061.24 41.4257 1056.37 31.4571C1054.24 27.2922 1051.08 24.3563 1046 21.9665C1038.93 18.6209 1027.2 17.5285 1016.01 19.1672Z" fill="#F05600"/>
<path d="M1123.03 20.6946C1110.34 23.494 1101.07 31.7556 1093.31 47.3229C1090.36 53.1947 1092.83 61.9899 1090.09 73.1874C1088.37 80.4931 1087.07 83.7022 1081.24 95.3777C1068.68 120.572 1067.51 127.332 1069.84 159.695C1071.56 184.002 1072.86 188.167 1080 191.717C1087 195.268 1095.1 192.742 1099.01 185.846L1100.73 182.773L1100.45 160.037L1100.25 137.368H1101.89C1102.72 137.368 1109.99 138.461 1117.89 139.758C1126.95 141.329 1135.94 142.353 1142.11 142.626L1151.86 143.035L1153.58 148.361C1154.47 151.297 1155.63 156.554 1156.05 159.968C1156.73 165.772 1156.66 166.455 1155.22 170.346C1152.41 177.789 1153.44 183.729 1158.45 188.85C1166.68 197.248 1179.18 195.063 1185.22 184.207C1187.96 179.223 1189.06 173.419 1188.99 163.997C1188.92 151.707 1186.31 141.26 1178.28 120.777L1175.61 114.086L1176.5 101.659C1178.08 78.9228 1176.59 72.7095 1175.36 65.7452C1173.23 53.5918 1162.84 38.0371 1154.6 29.9121C1149.46 24.8595 1144.31 22.1284 1137.51 20.6263C1131.89 19.4656 1128.73 19.4656 1123.03 20.6946ZM1137.86 56.2546C1138.89 57.4836 1140.81 60.8292 1142.11 63.6286C1145.07 69.9101 1145.55 75.6454 1144.38 90.4617C1143.97 96.197 1143.42 103.093 1143.21 105.756L1142.8 110.74H1138.27C1134.29 110.74 1111.98 108.76 1111.57 108.35C1111.43 108.282 1112.26 106.575 1113.36 104.527C1116.86 98.1088 1119.67 90.3251 1122.28 79.6738C1124.89 69.2273 1127.01 63.6969 1130.65 58.0298C1132.44 55.2304 1133.4 54.5476 1135.53 54.138C1135.73 54.138 1136.83 55.0939 1137.86 56.2546Z" fill="#F05600"/>
<path d="M1199.04 20.1864C1189.98 22.6444 1186.2 24.8975 1183.52 29.4721C1179.82 35.8219 1181.88 44.4932 1187.92 48.3168C1191.97 50.9113 1195.74 51.3893 1201.03 50.0237C1207 48.5216 1209.81 48.6581 1215.64 50.7065C1223.54 53.5741 1223.13 59.532 1221.68 64.1066C1219.76 70.2516 1218.25 73.716 1217.84 82.7287C1217.15 96.8621 1219.42 107.898 1228.62 123.875C1231.64 129.064 1233.76 133.638 1234.24 135.96C1235.07 139.92 1234.93 144.196 1230.88 161.266C1227.72 174.648 1228.55 181.203 1234.04 186.119C1243.3 194.38 1257.85 189.806 1260.81 177.652C1267.19 151.229 1268.01 143.266 1267.39 136.096C1266.57 126.469 1264.03 119.505 1256.89 107.352C1250.3 96.1541 1250.17 92.4924 1250.24 79.3148C1250.3 71.5994 1250.65 66.5469 1251.27 64.2937L1252.23 60.9481L1257.37 60.1288C1260.19 59.7191 1268.1 57.0689 1270.92 56.2496C1273.73 55.4303 1279.57 54.3378 1283.82 53.7916C1288.08 53.2454 1291.05 52.2895 1292.35 51.675C1302.17 47.0321 1304.64 33.9228 1297.23 26.2757C1292.77 21.6329 1289.66 20.4039 1279.5 21.428C1275.72 21.7694 1265.95 24.6244 1261.77 25.7169C1257.58 26.8776 1252.98 27.7652 1251.47 27.7652C1248.45 27.7652 1237.13 25.1706 1228.89 22.5761C1216.47 18.6843 1207.27 17.9332 1199.04 20.1864Z" fill="#F05600"/>
</g>
<defs>
<clipPath id="clip0_1133_173">
<rect width="1301.45" height="200" fill="white"/>
</clipPath>
</defs>
</svg>
