<svg width="801" height="123" viewBox="0 0 801 123" fill="none" xmlns="http://www.w3.org/2000/svg">
<path d="M59.3922 0.728707C55.6749 2.1144 53.3094 5.93556 53.7741 9.88269C54.0697 12.1082 54.7034 13.2839 58.0827 17.357C62.2647 22.3959 63.7854 26.385 64.0811 33.3135C64.3345 38.4784 63.6164 45.2809 62.7716 45.7848C62.5181 45.9527 57.3646 46.1207 51.324 46.1627C40.7213 46.2467 40.1299 46.2887 34.4272 47.5484C29.5271 48.6401 22.8107 49.312 22.8107 48.7241C22.8107 48.6401 23.2753 47.1705 23.8667 45.4908C27.0349 36.2529 27.2461 26.595 24.4581 17.9869C22.6417 12.3182 17.4037 4.21394 14.4468 2.53431C10.7295 0.350791 6.75872 0.85468 3.75954 3.87801C0.211213 7.36324 0.168971 11.1424 3.59057 16.9371C5.91388 20.8423 6.67424 22.9418 7.01217 26.3011C7.35011 29.7863 6.71648 33.0196 4.01299 41.2918C1.39399 49.312 0.549149 53.4271 0.168971 59.6837C-0.295691 66.9481 0.591391 70.8532 4.68886 79.5033C8.74409 88.0694 9.63118 93.8642 7.56132 98.1892C4.30869 105.034 8.9553 112.466 16.5166 112.424C22.2193 112.424 25.9366 108.687 27.922 101.003C30.0763 92.6464 28.2176 81.4349 23.0219 71.1472C21.9658 69.0476 21.121 67.284 21.121 67.2C21.121 67.1161 22.0081 67.2 23.1486 67.368C26.4857 67.9139 30.372 67.7879 35.9479 66.9061C40.3833 66.2343 42.8334 66.1503 50.9438 66.2762L60.6173 66.4442L60.8707 68.5018C61.2086 70.9792 61.7578 72.7008 63.6164 77.2778C65.4751 81.6868 66.7846 87.3136 66.8691 90.7988C66.9113 93.0663 66.6579 94.1161 65.6018 96.5516C62.5181 103.354 62.9828 107.553 67.1648 111.08C71.8959 115.153 78.5279 114.02 81.9917 108.561C83.7659 105.79 86.4271 98.6511 86.934 95.3758C87.9056 89.0352 86.1314 79.1674 82.2874 69.6355C80.5977 65.4784 80.5977 65.4784 80.8934 61.4473C81.0201 59.2638 81.4426 56.2405 81.7805 54.7288C83.9771 44.819 84.1883 43.4753 84.1883 38.1425C84.1883 24.3275 80.3865 14.5017 71.4734 5.09574C69.9527 3.5001 67.9251 1.77848 67.038 1.31658C64.8414 0.224818 61.5043 -0.0271259 59.3922 0.728707Z" fill="#322C25"/>
<path d="M109.871 2.91226C103.873 4.54989 98.4661 9.42082 96.4807 15.0056C96.1428 15.9294 95.6359 18.2389 95.4247 20.0445C94.8755 24.4955 95.4669 28.2327 97.6635 33.5235C99.0997 37.0507 99.3954 38.1845 99.3954 40.6619C99.3954 43.2654 99.142 44.2311 97.1988 49.0181C93.8195 57.2483 93.1858 60.1456 93.1436 67.1161V72.9948L95.3824 78.4536C98.1704 85.2141 98.8463 88.3214 98.8463 94.3261C98.8463 104.236 100.029 108.981 103.366 112.718C107.464 117.211 110.04 118.135 119.967 118.555C124.022 118.723 129.303 119.143 131.626 119.437C135.343 119.898 136.357 119.898 139.23 119.311C143.665 118.429 148.988 116.329 150.931 114.734C156.084 110.535 156.042 102.22 150.888 98.6511C148.1 96.6776 144.763 96.6356 139.399 98.4412L135.217 99.8269L130.823 99.113C128.373 98.7351 124.783 98.3992 122.755 98.3992H119.122V94.2841C119.122 88.8673 118.404 83.4505 117.179 79.1255C116.588 77.1939 116.208 75.5562 116.25 75.5143C116.334 75.4303 117.982 75.5562 119.967 75.8082C121.953 76.0601 127.824 76.2701 133.062 76.3121L142.567 76.3541L144.763 75.2203C145.946 74.5904 147.425 73.4147 148.016 72.6589C151.775 67.746 151.733 62.6231 147.847 58.8439C145.059 56.1985 142.609 55.6106 137.962 56.5764C135.512 57.0803 132.513 57.2483 126.346 57.2063C121.784 57.1643 117.559 57.0383 116.968 56.8704L115.87 56.6184L117.475 52.3354C119.46 47.2125 120.052 42.7615 119.545 37.3027C119.165 33.7335 118.616 31.7599 115.912 24.8734C114.729 21.8501 114.898 21.7241 120.897 21.3882C135.808 20.5904 139.103 20.2544 141.342 19.2047C148.058 16.0554 147.636 6.48147 140.666 3.33216C138.892 2.57633 137.793 2.49235 125.459 2.36638C114.729 2.2824 111.73 2.40837 109.871 2.91226Z" fill="#322C25"/>
<path d="M164.11 3.45812C158.661 5.97757 157.52 11.3104 160.308 21.1782C164.786 36.8408 165.715 47.4644 163.646 57.8781C162.378 64.1767 162.125 71.2312 163.012 74.8844C163.35 76.1441 164.659 79.5453 165.927 82.4427C169.01 89.3292 169.221 91.4287 167.278 97.3914C164.448 106.042 165.166 111.878 169.602 116.287C171.376 118.051 172.347 118.639 174.671 119.353C178.05 120.402 179.782 120.444 192.243 119.605C197.439 119.269 204.831 118.807 208.675 118.597C215.772 118.177 219.151 117.463 225.319 115.195C229.459 113.642 231.782 110.954 232.542 106.713C232.965 104.446 231.782 100.793 229.881 98.7351C226.671 95.2079 223.249 94.662 217.208 96.7196C214.927 97.5174 212.013 98.1472 209.52 98.3992C203.48 98.9871 188.357 99.7849 188.104 99.5329C187.977 99.407 188.104 98.3152 188.357 97.1395C188.991 94.1581 188.948 88.9933 188.188 85.2141C187.639 82.2747 187.005 80.4691 183.541 72.4069C182.528 69.9715 182.401 69.3836 182.697 66.7382C182.866 65.1005 183.373 61.9512 183.879 59.7677C184.64 56.4504 184.766 54.5189 184.766 48.2203C184.682 38.1005 183.922 34.0694 179.317 19.6665C177.839 15.0476 176.403 10.3866 176.149 9.33683C174.797 4.04599 168.968 1.23261 164.11 3.45812Z" fill="#322C25"/>
<path d="M239.385 4.08802C233.894 5.5577 231.571 11.7303 234.485 17.1891C236.302 20.6324 237.738 25.0834 238.034 28.2747C238.287 30.7101 238.16 31.424 236.766 35.2032C234.612 41.1238 233.978 44.5251 233.894 50.5298C233.852 58.3401 235.288 62.8751 240.568 71.3572C246.482 80.8471 247.242 83.9124 246.017 94.0322C245.341 99.9949 245.341 100.583 245.975 103.186C247.791 110.451 253.198 113.936 265.28 115.699C270.729 116.497 298.82 116.329 300.805 115.489C302.917 114.65 305.283 112.424 306.381 110.409C307.733 107.805 307.648 103.816 306.17 101.297C304.903 99.1551 302.664 97.4334 300.129 96.7196C297.848 96.0897 286.232 95.7118 281.754 96.1737C278.924 96.4257 270.011 96.0477 266.505 95.5019C266.378 95.4599 266.42 94.0742 266.631 92.3945C267.054 88.3634 266.378 80.2592 265.237 76.2701C263.97 71.6931 262.787 69.2576 258.648 62.3712C256.662 59.0539 254.761 55.4847 254.423 54.3929C253.579 51.6215 254.001 47.2545 255.733 41.0819C257.634 34.3214 257.887 31.8859 257.085 26.805C255.986 19.5406 252.058 10.0927 248.763 6.81742C246.017 4.08802 242.849 3.16422 239.385 4.08802Z" fill="#322C25"/>
<path d="M341.104 8.03519C336.626 10.1767 334.641 15.3416 336.626 19.6666C337.049 20.5904 339.119 23.2358 341.189 25.5453C347.483 32.5158 352.087 38.1426 355.762 43.4754C361.422 51.6636 362.985 53.6371 364.633 54.6869C365.985 55.5267 366.365 56.1986 367.632 59.9357C370.885 69.2997 370.927 70.2655 368.012 76.3961C365.393 81.9389 364.591 84.8363 364.253 89.8332C363.957 94.4941 364.422 96.6776 366.998 102.556C370.589 110.745 373.039 113.18 378.024 113.432C380.431 113.558 381.192 113.432 383.008 112.55C385.543 111.248 387.021 109.653 387.993 107.007C389.091 104.194 388.669 101.465 386.345 96.4257C385.12 93.7383 384.402 91.6388 384.402 90.631C384.402 89.5392 385.163 87.3557 386.683 84.1644C389.513 78.1177 390.316 74.9264 390.316 69.8036C390.316 65.0586 389.682 62.0353 387.444 55.3588C386.092 51.3696 385.838 50.1939 386.176 49.522C387.655 46.7926 402.735 27.9388 407.424 23.0259C409.832 20.4645 410.677 18.6169 410.677 16.0134C410.677 11.4784 407.255 7.74126 402.777 7.36334C398.595 7.02741 397.286 7.82524 389.851 15.2156C386.219 18.8268 381.318 24.0337 378.911 26.8051C376.503 29.5764 374.222 32.1799 373.842 32.5998C373.208 33.2716 372.997 33.1037 370.167 29.6604C365.942 24.4116 352.298 10.5546 349.764 8.95899C347.018 7.23737 343.596 6.85945 341.104 8.03519Z" fill="#322C25"/>
<path d="M431.713 10.6806C423.307 10.9745 420.984 11.5204 418.322 13.7459C416.253 15.5515 415.323 17.3571 415.112 20.0865C415.027 21.2622 414.225 23.9497 413.38 26.0492C410.677 32.7677 410.001 36.127 410.296 41.7117C410.592 47.0866 411.226 50.3198 413.211 56.8284C415.07 62.8751 415.028 65.8144 413.042 72.7849C410.888 80.2592 410.423 83.6185 410.719 89.6652C411.141 99.1131 413.465 104.194 420.519 111.29C426.264 117.085 426.771 117.253 433.614 116.413C436.867 116.035 443.541 115.825 455.622 115.825H472.984L475.053 114.566C476.321 113.768 477.588 112.508 478.391 111.248C479.489 109.443 479.658 108.771 479.658 106.168C479.658 103.564 479.489 102.892 478.391 101.087C476.828 98.6092 474.208 96.8876 470.998 96.2997C468.633 95.8378 454.566 95.6278 452.496 96.0478C451.863 96.1737 447.976 96.5936 443.879 96.9296C438.007 97.4754 436.191 97.5174 435.43 97.0975C430.615 94.6201 429.474 88.1115 432.262 78.5376L432.727 76.9L440.964 77.2779C452.665 77.7398 464.789 77.5298 467.408 76.774C473.49 75.0104 476.321 68.2499 473.279 62.6651C470.871 58.2561 466.858 56.8704 458.832 57.6262C456.129 57.9202 449.455 58.2141 444.09 58.3821L434.248 58.634V57.5422C434.248 56.9124 433.318 53.5111 432.178 49.9839C428.841 39.7382 428.714 38.0166 430.953 31.676L431.924 29.0305L437.416 29.3245C440.415 29.4504 444.639 29.7864 446.709 29.9963C448.821 30.2063 454.228 30.5002 458.748 30.6682C468.083 30.9621 470.407 30.5842 473.195 28.2747C479.447 23.1518 476.743 12.6122 468.802 11.1005C466.014 10.5966 441.724 10.3027 431.713 10.6806Z" fill="#322C25"/>
<path d="M499.807 13.9978C498.118 14.4177 495.414 15.5095 493.809 16.3493C476.785 25.2093 475.687 52.2934 491.866 63.043C495.541 65.4785 498.118 66.5282 504.665 68.1659C509.945 69.5096 512.015 70.4334 515.226 72.8688C518.013 74.9684 518.774 76.8159 519.07 82.0648C519.196 85.0881 519.07 86.6838 518.52 88.5734C517.253 92.9404 516.155 93.9062 511.382 94.578C507.242 95.1659 505.932 94.662 502.68 91.2188C499.596 87.9855 497.822 87.0617 494.654 87.0617C490.979 87.0617 487.853 88.9933 486.079 92.2685C484.685 94.914 484.769 99.5329 486.332 102.682C488.529 107.175 494.654 111.71 501.243 113.768C507.031 115.615 516.113 114.986 522.618 112.298C526.335 110.744 530.897 107.427 532.925 104.782C540.486 94.914 541.542 76.3541 535.206 65.3525C532.207 60.1876 525.364 54.5609 518.394 51.5375C516.535 50.7397 512.733 49.522 509.988 48.8081C503.905 47.2545 502.722 46.6246 501.497 44.2311C500.694 42.6775 500.525 41.8377 500.652 39.5282C500.821 36.1689 501.666 34.7832 504.369 33.3975C508.551 31.298 512.226 32.6417 513.451 36.7568C514.338 39.7801 515.606 41.5857 517.591 42.7195C521.097 44.693 524.392 44.5671 527.307 42.3835C529.799 40.536 530.982 38.0165 530.982 34.5313C530.982 26.2591 524.054 17.3151 515.352 14.3757C511.382 13.032 504.031 12.8641 499.807 13.9978Z" fill="#322C25"/>
<path d="M629.321 13.7878C620.45 15.0476 611.833 18.7428 606.68 23.4457C595.739 33.5235 591.853 47.0025 595.992 60.5235C597.555 65.6044 597.555 65.8983 596.964 74.6744C596.246 84.9202 597.091 91.0508 600.048 97.4334C603.807 105.496 609.848 111.584 617.747 115.195C622.563 117.421 626.111 118.219 631.095 118.219C638.192 118.219 645.838 115.07 650.991 109.989C654.202 106.797 655.342 104.488 655.511 100.709C655.638 98.0633 655.511 97.5594 654.328 95.5858C652.554 92.5625 649.64 90.8409 646.176 90.8409C642.923 90.8409 641.36 91.5547 638.108 94.578C634.77 97.6853 631.856 98.7351 628.899 97.9793C622.478 96.2577 618.085 91.1348 617.071 84.1223C616.649 81.4769 616.691 79.4194 617.24 73.7506C618 65.5624 617.789 62.833 615.888 56.5764C613.861 49.7319 614.199 46.2467 617.409 41.4597C620.915 36.2109 629.659 32.0538 637.178 32.0538C639.333 32.0538 640.262 32.3058 642.247 33.3555C644.359 34.4893 644.993 34.6572 647.19 34.4893C653.695 34.0274 657.159 27.4768 654.159 21.3462C652.85 18.7847 650.907 16.9791 647.781 15.5095C643.43 13.4519 636.207 12.7801 629.321 13.7878Z" fill="#322C25"/>
<path d="M696.19 16.7272C688.376 18.4488 682.673 23.5297 677.9 33.1036C676.083 36.7148 674.605 41.1238 672.915 48.0103C671.859 52.5033 671.056 54.4769 667.466 61.6573C659.736 77.1519 659.017 81.309 660.454 101.213C661.51 116.161 662.312 118.723 666.705 120.906C671.014 123.09 675.999 121.536 678.406 117.295L679.463 115.405L679.294 101.423L679.167 87.4816H680.181C680.688 87.4816 685.165 88.1535 690.023 88.9513C695.599 89.9171 701.133 90.5469 704.934 90.7149L710.933 90.9668L711.989 94.2421C712.538 96.0477 713.256 99.281 713.51 101.381C713.932 104.95 713.89 105.37 713.003 107.763C711.271 112.34 711.904 115.993 714.988 119.143C720.057 124.307 727.745 122.964 731.462 116.287C733.152 113.222 733.828 109.653 733.786 103.858C733.743 96.2997 732.138 89.8751 727.196 77.2779L725.549 73.1628L726.098 65.5205C727.069 51.5375 727.154 47.7164 726.393 43.4333C725.084 35.959 720.691 27.3929 715.622 22.396C712.453 19.2886 709.285 17.609 705.103 16.6852C701.64 15.9714 699.696 15.9714 696.19 16.7272ZM702.315 37.5966C702.949 38.3524 704.132 40.41 704.934 42.1316C706.751 45.9948 707.047 49.522 706.328 58.634C706.075 62.1612 705.737 66.4023 705.61 68.0399L705.357 71.1052H702.569C700.119 71.1052 686.39 69.8875 686.137 69.6355C686.052 69.5936 686.559 68.5438 687.235 67.2841C689.389 63.3369 691.121 58.55 692.727 51.9994C694.332 45.5748 695.641 42.1736 697.88 38.6884C698.978 36.9668 699.57 36.5468 700.879 36.2949C701.006 36.2949 701.682 36.8828 702.315 37.5966Z" fill="#322C25"/>
<path d="M737.968 19.4147C732.392 20.9263 730.068 22.312 728.421 25.1254C726.14 29.0305 727.407 34.3634 731.124 36.7148C733.617 38.3105 735.94 38.6044 739.193 37.7646C742.868 36.8408 744.6 36.9248 748.19 38.1845C753.048 39.9481 752.794 39.6122 751.907 42.4256C750.725 46.2048 749.795 52.3354 749.542 57.8782C749.119 66.5703 750.513 71.3572 756.174 81.183C758.033 84.3743 759.342 87.1877 759.638 88.6154C760.145 91.0509 760.06 91.6807 757.568 102.178C755.625 110.409 756.132 114.44 759.511 117.463C765.214 122.544 774.169 119.731 775.985 112.256C779.914 96.0058 780.421 93.1084 780.041 88.6994C779.534 82.7787 777.971 78.4956 773.578 71.0213C769.522 64.1348 769.438 63.8829 769.48 55.7786C769.522 51.0337 769.734 47.9264 770.114 46.5407L770.705 44.4831L773.873 43.9792C775.605 43.7273 778.478 43.0974 780.21 42.5936C781.941 42.0897 785.532 41.4178 788.151 41.0819C790.77 40.746 793.6 40.1581 794.403 39.7802C800.443 36.9248 801.964 28.8626 797.402 24.1596C794.656 21.3042 791.742 20.5484 785.49 21.1783C783.166 21.3882 779.154 22.1441 776.577 22.8159C774 23.5298 771.17 24.0756 770.24 24.0756C768.382 24.0756 761.412 22.48 756.343 20.8843C748.697 18.4909 743.037 18.029 737.968 19.4147Z" fill="#322C25"/>
</svg>
